<?xml version="1.0" encoding="UTF-8" standalone="no"?>
<!DOCTYPE svg PUBLIC "-//W3C//DTD SVG 1.1//EN" "http://www.w3.org/Graphics/SVG/1.1/DTD/svg11.dtd">
<svg version="1.1" id="Layer_1" xmlns="http://www.w3.org/2000/svg" xmlns:xlink="http://www.w3.org/1999/xlink" x="0px" y="0px"
	 width="100%" viewBox="0 0 160 160" enable-background="new 0 0 160 160" xml:space="preserve">
<path fill="#FEFEFE" opacity="1.000000" stroke="none" 
	d="
M96.000000,161.000000 
	C64.000000,161.000000 32.500008,161.000000 1.000009,161.000000 
	C1.000006,107.666679 1.000006,54.333355 1.000003,1.000023 
	C54.333317,1.000015 107.666634,1.000015 160.999969,1.000008 
	C160.999969,54.333313 160.999969,107.666626 160.999985,160.999969 
	C139.500000,161.000000 118.000000,161.000000 96.000000,161.000000 
M123.747993,146.186111 
	C123.906456,146.403198 124.064919,146.620300 124.761719,147.128357 
	C125.262230,145.482224 125.762741,143.836105 126.263252,142.189972 
	C125.975487,142.128235 125.687729,142.066498 125.399963,142.004745 
	C124.958900,142.422028 124.517838,142.839310 123.833992,142.776688 
	C122.717369,142.319717 121.600754,141.862747 120.261650,141.314713 
	C119.818535,143.201920 119.444565,144.794693 118.836830,147.383026 
	C121.315613,145.745392 122.737946,144.805710 124.187378,144.605682 
	C124.172783,145.097092 124.158180,145.588516 123.747993,146.186111 
M62.524921,123.647186 
	C63.040550,123.285614 63.556179,122.924042 64.571724,122.286324 
	C65.287605,121.997749 66.003487,121.709167 66.719368,121.420593 
	C66.680885,121.004951 66.642410,120.589310 66.603928,120.173660 
	C64.960678,120.255936 63.317425,120.338211 61.674175,120.420479 
	C61.874996,121.303421 62.075817,122.186363 62.524921,123.647186 
M76.574127,48.602814 
	C77.395668,46.738274 78.217209,44.873730 79.572594,42.605789 
	C80.396820,40.753342 81.221046,38.900890 82.543785,36.681442 
	C83.031937,35.764488 83.520088,34.847530 84.578659,34.326797 
	C87.383263,39.563107 90.187859,44.799416 93.230110,50.687172 
	C94.237907,52.811218 95.245705,54.935265 96.496094,57.687649 
	C98.636887,61.483948 100.777679,65.280243 103.345055,69.604912 
	C107.230469,71.381668 111.115875,73.158424 115.183754,75.018623 
	C113.109489,71.044632 111.022972,67.047150 108.766701,62.357529 
	C106.828323,58.963058 104.889954,55.568588 102.939369,51.473820 
	C102.310051,50.303345 101.680740,49.132870 100.767563,47.338764 
	C99.869781,45.539925 98.972008,43.741081 97.909592,41.258274 
	C96.646507,38.834457 95.383430,36.410641 93.982658,33.272495 
	C90.666275,27.183559 87.349892,21.094625 83.412949,15.319747 
	C74.676918,32.896614 65.940895,50.473484 56.815235,68.616714 
	C55.826073,70.523666 54.758438,72.397308 53.921337,74.368820 
	C53.773678,74.716583 54.589294,75.473343 55.789803,76.106834 
	C68.897400,72.982315 81.983002,69.666023 95.732315,72.137154 
	C95.942253,71.520004 96.152199,70.902855 96.362137,70.285713 
	C94.868767,69.593834 93.375389,68.901955 91.356033,67.724777 
	C89.138046,66.821404 86.986221,65.425430 84.688354,65.116783 
	C79.841949,64.465820 74.919083,64.384102 69.809975,63.329315 
	C70.556519,61.239563 71.303062,59.149811 72.590500,56.638012 
	C73.740105,54.093281 74.889717,51.548553 76.574127,48.602814 
M118.024292,97.036331 
	C118.137222,97.173462 118.250153,97.310593 117.848793,97.889709 
	C114.751221,100.266747 113.101669,103.241760 115.196709,106.950439 
	C117.192299,110.483078 120.451439,111.089996 124.270920,110.028770 
	C125.656029,109.643929 127.237808,109.966888 128.547134,109.966888 
	C128.547134,106.405861 128.925842,102.884460 128.401581,99.503059 
	C128.099106,97.552185 126.647720,94.648315 125.165977,94.259430 
	C122.516441,93.564079 119.452927,94.446075 116.562469,94.668678 
	C116.934959,95.322319 117.307449,95.975952 118.024292,97.036331 
M37.866730,104.325813 
	C38.758156,103.586723 39.579533,102.735611 40.552631,102.127151 
	C45.949291,98.752693 47.036053,99.173790 49.349659,105.195747 
	C50.055901,107.033981 50.983376,108.787231 51.809532,110.579399 
	C52.451237,110.295097 53.092945,110.010803 53.734650,109.726501 
	C50.698490,102.337326 47.722534,94.921532 44.494255,87.617271 
	C44.272820,87.116249 41.244583,87.049950 41.069019,87.453934 
	C37.835152,94.895241 34.837387,102.439171 31.789721,109.961403 
	C32.213547,110.167763 32.637375,110.374123 33.061203,110.580475 
	C34.493263,108.668495 35.925323,106.756508 37.866730,104.325813 
M84.605278,106.231064 
	C85.164314,105.447388 85.555649,104.368576 86.314865,103.937157 
	C88.330162,102.791992 90.547699,102.009232 92.605797,100.931473 
	C96.384644,98.952599 96.414742,96.771049 92.777000,94.519363 
	C89.410995,92.435890 84.932259,93.291183 82.540863,96.474152 
	C79.756393,100.180305 80.394379,105.529846 83.985214,108.585075 
	C87.892494,111.909531 92.833282,110.928223 93.957512,107.524345 
	C91.151779,107.290329 88.133705,107.038612 84.605278,106.231064 
M69.064056,109.362007 
	C73.866707,111.177750 74.264565,111.096161 76.599808,107.816658 
	C67.102814,109.380295 67.248245,104.555939 68.656944,95.011124 
	C70.822365,94.798027 73.025963,94.581169 75.553864,94.332390 
	C72.034088,93.098587 69.144547,92.085701 66.044914,90.999176 
	C67.053200,96.579323 63.618996,103.189415 69.064056,109.362007 
M58.101265,90.916626 
	C58.101265,97.401932 58.101265,103.887230 58.101265,110.372536 
	C58.704437,110.353859 59.307613,110.335190 59.910786,110.316513 
	C59.910786,102.435074 59.910786,94.553627 59.910786,86.672188 
	C59.492901,86.635559 59.075020,86.598923 58.657135,86.562294 
	C58.471951,87.723488 58.286762,88.884682 58.101265,90.916626 
M110.843147,94.508270 
	C107.294792,92.535027 104.127106,92.987785 101.668732,96.263847 
	C99.438507,99.235909 99.784615,107.654182 102.087967,110.258148 
	C102.301743,110.027473 102.676964,109.813011 102.698059,109.568054 
	C102.810791,108.258659 102.875526,106.941902 102.883408,105.627243 
	C102.934990,97.024361 102.929276,97.027687 111.080605,95.899132 
	C111.196487,95.883095 111.242302,95.360901 110.843147,94.508270 
M106.585815,133.992020 
	C107.051521,133.869156 107.517220,133.746292 109.100838,133.328491 
	C90.646866,133.328491 73.333000,133.328491 56.019142,133.328491 
	C56.018833,133.551910 56.018524,133.775345 56.018219,133.998764 
	C72.601616,133.998764 89.185020,133.998764 106.585815,133.992020 
z"/>
<path fill="#81B54C" opacity="1.000000" stroke="none" 
	d="
M57.204865,68.050354 
	C65.940895,50.473484 74.676918,32.896614 83.719337,15.612404 
	C84.032738,18.598515 84.039749,21.291967 83.876045,24.293728 
	C82.105659,28.028913 80.505981,31.455791 78.641663,35.101772 
	C77.209358,37.874859 76.041710,40.428848 74.616272,43.189308 
	C73.531029,45.253342 72.703560,47.110897 71.618225,49.178505 
	C70.546623,51.228889 69.732887,53.069221 68.656143,55.131378 
	C66.650909,58.889454 64.908684,62.425705 62.841442,66.104279 
	C60.745907,66.847847 58.975388,67.449104 57.204865,68.050354 
z"/>
<path fill="#A3C87B" opacity="1.000000" stroke="none" 
	d="
M37.612057,104.585167 
	C35.925323,106.756508 34.493263,108.668495 33.061203,110.580475 
	C32.637375,110.374123 32.213547,110.167763 31.789721,109.961403 
	C34.837387,102.439171 37.835152,94.895241 41.069019,87.453934 
	C41.244583,87.049950 44.272820,87.116249 44.494255,87.617271 
	C47.722534,94.921532 50.698490,102.337326 53.734650,109.726501 
	C53.092945,110.010803 52.451237,110.295097 51.809532,110.579399 
	C50.983376,108.787231 50.055901,107.033981 49.349659,105.195747 
	C47.036053,99.173790 45.949291,98.752693 40.552631,102.127151 
	C39.579533,102.735611 38.758156,103.586723 37.612057,104.585167 
M39.858395,99.987106 
	C41.909321,99.078796 43.960247,98.170494 46.322563,97.124275 
	C45.162708,94.284798 44.123249,91.740067 43.083786,89.195328 
	C42.698292,89.257256 42.312794,89.319176 41.927296,89.381096 
	C40.817612,92.792763 39.707924,96.204430 38.305038,99.939880 
	C38.370987,100.186035 38.436935,100.432190 38.502884,100.678345 
	C38.718109,100.506409 38.933331,100.334473 39.858395,99.987106 
z"/>
<path fill="#A1C879" opacity="1.000000" stroke="none" 
	d="
M117.679932,96.629593 
	C117.307449,95.975952 116.934959,95.322319 116.562469,94.668671 
	C119.452927,94.446075 122.516441,93.564079 125.165977,94.259430 
	C126.647720,94.648315 128.099106,97.552185 128.401581,99.503059 
	C128.925842,102.884460 128.547134,106.405861 128.547134,109.966888 
	C127.237808,109.966888 125.656029,109.643929 124.270920,110.028770 
	C120.451439,111.089996 117.192299,110.483078 115.196709,106.950439 
	C113.101669,103.241760 114.751221,100.266747 118.493759,97.567192 
	C120.869202,97.075325 122.599678,96.905968 124.330147,96.736610 
	C124.279579,96.375633 124.229012,96.014648 124.178444,95.653664 
	C122.012276,95.978973 119.846107,96.304283 117.679932,96.629593 
M125.944969,105.175522 
	C126.524048,102.214500 125.873360,99.537582 122.579781,99.267784 
	C120.854935,99.126480 118.113167,100.292175 117.423897,101.666611 
	C116.700546,103.109024 117.196968,106.350273 118.376717,107.309738 
	C120.741814,109.233253 123.638428,108.697144 125.944969,105.175522 
z"/>
<path fill="#CAB244" opacity="1.000000" stroke="none" 
	d="
M57.010048,68.333534 
	C58.975388,67.449104 60.745907,66.847847 63.211864,66.103645 
	C65.628822,65.596275 67.350342,65.231850 69.341354,64.845169 
	C69.758011,64.555450 69.905167,64.288010 70.024475,64.021362 
	C69.996620,64.022163 70.027588,64.068817 70.027588,64.068817 
	C74.919083,64.384102 79.841949,64.465820 84.688354,65.116783 
	C86.986221,65.425430 89.138046,66.821404 91.361641,68.228577 
	C87.947151,68.456955 84.527061,68.181534 80.790817,67.651321 
	C73.419952,66.707199 66.744728,67.646553 60.519890,72.004578 
	C58.441639,73.374977 56.700851,74.708107 54.960064,76.041229 
	C54.589294,75.473343 53.773678,74.716583 53.921337,74.368820 
	C54.758438,72.397308 55.826073,70.523666 57.010048,68.333534 
z"/>
<path fill="#C4C8CC" opacity="1.000000" stroke="none" 
	d="
M92.992455,50.035728 
	C90.187859,44.799416 87.383263,39.563107 84.295776,33.720337 
	C84.409531,30.995430 84.806152,28.876980 85.482193,26.958382 
	C87.217018,29.743940 88.672424,32.329647 90.213860,35.254341 
	C91.429756,37.732826 92.428856,39.955761 93.725838,41.988647 
	C95.055275,44.072388 96.653229,44.521702 98.074234,41.942238 
	C98.972008,43.741081 99.869781,45.539925 100.741928,47.951984 
	C99.606033,48.848415 98.506920,49.191936 97.382721,49.399811 
	C95.929779,49.668465 94.456802,49.828766 92.992455,50.035728 
z"/>
<path fill="#C3BE81" opacity="1.000000" stroke="none" 
	d="
M81.106964,67.906113 
	C84.527061,68.181534 87.947151,68.456955 91.624634,68.471237 
	C93.375389,68.901955 94.868767,69.593834 96.362137,70.285713 
	C96.152199,70.902855 95.942253,71.520004 95.732315,72.137154 
	C81.983002,69.666023 68.897400,72.982315 55.374931,76.074036 
	C56.700851,74.708107 58.441639,73.374977 60.951279,72.014908 
	C68.182411,70.627350 74.644684,69.266731 81.106964,67.906113 
z"/>
<path fill="#A3C97C" opacity="1.000000" stroke="none" 
	d="
M84.860458,106.508972 
	C88.133705,107.038612 91.151779,107.290329 93.957512,107.524345 
	C92.833282,110.928223 87.892494,111.909531 83.985214,108.585075 
	C80.394379,105.529846 79.756393,100.180305 82.540863,96.474152 
	C84.932259,93.291183 89.410995,92.435890 92.777000,94.519363 
	C96.414742,96.771049 96.384644,98.952599 92.605797,100.931473 
	C90.547699,102.009232 88.330162,102.791992 86.314865,103.937157 
	C85.555649,104.368576 85.164314,105.447388 84.860458,106.508972 
M84.148682,102.469612 
	C87.159691,101.085861 90.170700,99.702103 93.181709,98.318352 
	C93.025818,97.608795 92.869926,96.899239 92.714035,96.189674 
	C90.333847,96.326393 87.542816,95.758751 85.707359,96.829361 
	C84.313972,97.642105 84.136848,100.540047 84.148682,102.469612 
z"/>
<path fill="#C9CDD0" opacity="1.000000" stroke="none" 
	d="
M102.951576,52.174118 
	C104.889954,55.568588 106.828323,58.963058 108.487709,62.683109 
	C106.445305,65.031311 104.681885,67.053932 102.918465,69.076546 
	C100.777679,65.280243 98.636887,61.483948 96.691841,57.319496 
	C98.908913,55.358936 100.930244,53.766525 102.951576,52.174118 
z"/>
<path fill="#818887" opacity="1.000000" stroke="none" 
	d="
M90.127838,34.915356 
	C88.672424,32.329647 87.217018,29.743940 85.451004,26.641365 
	C84.775848,25.411474 84.411308,24.698448 84.046761,23.985422 
	C84.039749,21.291967 84.032738,18.598515 84.029617,15.455376 
	C87.349892,21.094625 90.666275,27.183559 93.703781,33.657791 
	C92.325890,34.333843 91.226860,34.624599 90.127838,34.915356 
z"/>
<path fill="#A1C778" opacity="1.000000" stroke="none" 
	d="
M68.749680,109.144653 
	C63.618996,103.189415 67.053200,96.579323 66.044914,90.999176 
	C69.144547,92.085701 72.034088,93.098587 75.553864,94.332390 
	C73.025963,94.581169 70.822365,94.798027 68.656944,95.011124 
	C67.248245,104.555939 67.102814,109.380295 76.599808,107.816658 
	C74.264565,111.096161 73.866707,111.177750 68.749680,109.144653 
z"/>
<path fill="#9EA3A8" opacity="1.000000" stroke="none" 
	d="
M103.131760,69.340729 
	C104.681885,67.053932 106.445305,65.031311 108.572586,63.029182 
	C111.022972,67.047150 113.109489,71.044632 115.183754,75.018623 
	C111.115875,73.158424 107.230469,71.381668 103.131760,69.340729 
z"/>
<path fill="#A7CB81" opacity="1.000000" stroke="none" 
	d="
M58.101421,90.481247 
	C58.286762,88.884682 58.471951,87.723488 58.657135,86.562294 
	C59.075020,86.598923 59.492901,86.635559 59.910786,86.672188 
	C59.910786,94.553627 59.910786,102.435074 59.910786,110.316513 
	C59.307613,110.335190 58.704437,110.353859 58.101265,110.372536 
	C58.101265,103.887230 58.101265,97.401932 58.101421,90.481247 
z"/>
<path fill="#A7CB81" opacity="1.000000" stroke="none" 
	d="
M111.081985,94.791611 
	C111.242302,95.360901 111.196487,95.883095 111.080605,95.899132 
	C102.929276,97.027687 102.934990,97.024361 102.883408,105.627243 
	C102.875526,106.941902 102.810791,108.258659 102.698059,109.568054 
	C102.676964,109.813011 102.301743,110.027473 102.087967,110.258148 
	C99.784615,107.654182 99.438507,99.235909 101.668732,96.263847 
	C104.127106,92.987785 107.294792,92.535027 111.081985,94.791611 
z"/>
<path fill="#D7DADD" opacity="1.000000" stroke="none" 
	d="
M102.945473,51.823967 
	C100.930244,53.766525 98.908913,55.358936 96.570549,57.005325 
	C95.245705,54.935265 94.237907,52.811218 93.111282,50.361450 
	C94.456802,49.828766 95.929779,49.668465 97.382721,49.399811 
	C98.506920,49.191936 99.606033,48.848415 100.883865,48.263802 
	C101.680740,49.132870 102.310051,50.303345 102.945473,51.823967 
z"/>
<path fill="#E7C58E" opacity="1.000000" stroke="none" 
	d="
M106.177116,133.995392 
	C89.185020,133.998764 72.601616,133.998764 56.018219,133.998764 
	C56.018524,133.775345 56.018833,133.551910 56.019142,133.328491 
	C73.333000,133.328491 90.646866,133.328491 109.100838,133.328491 
	C107.517220,133.746292 107.051521,133.869156 106.177116,133.995392 
z"/>
<path fill="#A0C697" opacity="1.000000" stroke="none" 
	d="
M69.071854,64.867432 
	C67.350342,65.231850 65.628822,65.596275 63.536877,65.961334 
	C64.908684,62.425705 66.650909,58.889454 68.852524,55.397552 
	C70.224472,55.981285 71.137039,56.520672 72.049606,57.060059 
	C71.303062,59.149811 70.556519,61.239563 69.918777,63.699066 
	C70.027588,64.068817 69.996620,64.022163 69.767334,64.006866 
	C69.382652,64.283531 69.227257,64.575478 69.071854,64.867432 
z"/>
<path fill="#999EA2" opacity="1.000000" stroke="none" 
	d="
M90.213860,35.254341 
	C91.226860,34.624599 92.325890,34.333843 93.772629,34.014954 
	C95.383430,36.410641 96.646507,38.834457 97.991913,41.600258 
	C96.653229,44.521702 95.055275,44.072388 93.725838,41.988647 
	C92.428856,39.955761 91.429756,37.732826 90.213860,35.254341 
z"/>
<path fill="#D4E2CC" opacity="1.000000" stroke="none" 
	d="
M83.876045,24.293728 
	C84.411308,24.698448 84.775848,25.411474 85.171585,26.441517 
	C84.806152,28.876980 84.409531,30.995430 84.010567,33.522224 
	C83.520088,34.847530 83.031937,35.764488 82.094894,36.602249 
	C80.732773,35.976257 79.819542,35.429462 78.906311,34.882668 
	C80.505981,31.455791 82.105659,28.028913 83.876045,24.293728 
z"/>
<path fill="#C7DDBD" opacity="1.000000" stroke="none" 
	d="
M78.641663,35.101768 
	C79.819542,35.429462 80.732773,35.976257 81.845642,36.785748 
	C81.221046,38.900890 80.396820,40.753342 78.889671,42.804008 
	C77.095848,42.995762 75.984955,42.989296 74.874054,42.982834 
	C76.041710,40.428848 77.209358,37.874859 78.641663,35.101768 
z"/>
<path fill="#AECEA4" opacity="1.000000" stroke="none" 
	d="
M72.320053,56.849037 
	C71.137039,56.520672 70.224472,55.981285 69.115524,55.175728 
	C69.732887,53.069221 70.546623,51.228889 72.036194,49.189636 
	C73.821129,48.995079 74.930229,48.999451 76.039322,49.003822 
	C74.889717,51.548553 73.740105,54.093281 72.320053,56.849037 
z"/>
<path fill="#BBD6B2" opacity="1.000000" stroke="none" 
	d="
M76.306725,48.803318 
	C74.930229,48.999451 73.821129,48.995079 72.294067,48.979584 
	C72.703560,47.110897 73.531029,45.253342 74.616272,43.189308 
	C75.984955,42.989296 77.095848,42.995762 78.622749,43.005707 
	C78.217209,44.873730 77.395668,46.738274 76.306725,48.803318 
z"/>
<path fill="#EBECEE" opacity="1.000000" stroke="none" 
	d="
M124.160278,143.866043 
	C122.737946,144.805710 121.315613,145.745392 118.836830,147.383026 
	C119.444565,144.794693 119.818535,143.201920 120.261650,141.314713 
	C121.600754,141.862747 122.717369,142.319717 123.985619,143.166046 
	C124.137245,143.555405 124.160278,143.866043 124.160278,143.866043 
z"/>
<path fill="#EBECEE" opacity="1.000000" stroke="none" 
	d="
M62.276638,123.069305 
	C62.075817,122.186363 61.874996,121.303421 61.674175,120.420479 
	C63.317425,120.338211 64.960678,120.255936 66.603928,120.173660 
	C66.642410,120.589310 66.680885,121.004951 66.719368,121.420593 
	C66.003487,121.709167 65.287605,121.997749 64.047134,122.585602 
	C63.107239,122.946358 62.691936,123.007828 62.276638,123.069305 
z"/>
<path fill="#C0C4C9" opacity="1.000000" stroke="none" 
	d="
M124.173828,144.235870 
	C124.160278,143.866043 124.137245,143.555405 124.107010,143.406006 
	C124.517838,142.839310 124.958900,142.422028 125.399963,142.004745 
	C125.687729,142.066498 125.975487,142.128235 126.263252,142.189972 
	C125.762741,143.836105 125.262230,145.482224 124.462357,146.795197 
	C124.163002,146.462051 124.143578,146.079926 124.143578,146.079926 
	C124.158180,145.588516 124.172783,145.097092 124.173828,144.235870 
z"/>
<path fill="#9EA3A8" opacity="1.000000" stroke="none" 
	d="
M62.400780,123.358246 
	C62.691936,123.007828 63.107239,122.946358 63.797173,122.723679 
	C63.556179,122.924042 63.040550,123.285614 62.400780,123.358246 
z"/>
<path fill="#EBECEE" opacity="1.000000" stroke="none" 
	d="
M123.945786,146.133026 
	C124.143578,146.079926 124.163002,146.462051 124.193192,146.649719 
	C124.064919,146.620300 123.906456,146.403198 123.945786,146.133026 
z"/>
<path fill="#F9FBF6" opacity="1.000000" stroke="none" 
	d="
M38.598236,99.616096 
	C39.707924,96.204430 40.817612,92.792763 41.927296,89.381096 
	C42.312794,89.319176 42.698292,89.257256 43.083786,89.195328 
	C44.123249,91.740067 45.162708,94.284798 46.322563,97.124275 
	C43.960247,98.170494 41.909321,99.078796 39.368347,99.935738 
	C38.878304,99.884369 38.598236,99.616096 38.598236,99.616096 
z"/>
<path fill="#F9FBF6" opacity="1.000000" stroke="none" 
	d="
M39.013428,100.023453 
	C38.933331,100.334473 38.718109,100.506409 38.502884,100.678345 
	C38.436935,100.432190 38.370987,100.186035 38.451637,99.777985 
	C38.598236,99.616096 38.878304,99.884369 39.013428,100.023453 
z"/>
<path fill="#FBFCF9" opacity="1.000000" stroke="none" 
	d="
M125.798279,105.566284 
	C123.638428,108.697144 120.741814,109.233253 118.376717,107.309738 
	C117.196968,106.350273 116.700546,103.109024 117.423897,101.666611 
	C118.113167,100.292175 120.854935,99.126480 122.579781,99.267784 
	C125.873360,99.537582 126.524048,102.214500 125.798279,105.566284 
z"/>
<path fill="#FEFEFE" opacity="1.000000" stroke="none" 
	d="
M117.852112,96.832962 
	C119.846107,96.304283 122.012276,95.978973 124.178444,95.653664 
	C124.229012,96.014648 124.279579,96.375633 124.330147,96.736610 
	C122.599678,96.905968 120.869202,97.075325 118.750908,97.346199 
	C118.250153,97.310593 118.137222,97.173462 117.852112,96.832962 
z"/>
<path fill="#D5C994" opacity="1.000000" stroke="none" 
	d="
M80.790817,67.651321 
	C74.644684,69.266731 68.182411,70.627350 61.288742,71.977646 
	C66.744728,67.646553 73.419952,66.707199 80.790817,67.651321 
z"/>
<path fill="#FEFEFE" opacity="1.000000" stroke="none" 
	d="
M69.341354,64.845169 
	C69.227257,64.575478 69.382652,64.283531 69.795181,64.006073 
	C69.905167,64.288010 69.758011,64.555450 69.341354,64.845169 
z"/>
<path fill="#F8FBF5" opacity="1.000000" stroke="none" 
	d="
M83.783607,102.489883 
	C84.136848,100.540047 84.313972,97.642105 85.707359,96.829361 
	C87.542816,95.758751 90.333847,96.326393 92.714035,96.189674 
	C92.869926,96.899239 93.025818,97.608795 93.181709,98.318352 
	C90.170700,99.702103 87.159691,101.085861 83.783607,102.489883 
z"/>
</svg>